<svg width="337" height="348" viewBox="0 0 337 348" fill="none" xmlns="http://www.w3.org/2000/svg">
<g clip-path="url(#clip0_1672_7)">
<path d="M155.159 22.6353C158.076 21.5888 162.575 20.5527 165.628 19.9139C189.151 15.2287 213.555 18.1629 235.297 28.2904C266.735 43.1219 290.915 71.1457 302.585 103.723C304.825 110.049 306.555 116.543 307.757 123.144C311.905 147.771 310.552 169.11 301.11 192.523C297.63 201.228 293.152 209.5 287.765 217.173C286.79 218.539 285.51 220.308 284.437 221.594L284.085 221.47C284.115 220.634 289.7 214.45 289.917 212.725C290.372 209.113 293.42 206.337 294.995 202.242C294.957 201.045 293.937 198.986 293.542 197.835C290.445 188.847 281.932 183.492 275.63 176.948C275.187 176.487 275.472 175.869 275.587 175.221C262.527 192.447 244.611 207.806 223.364 213.448C222.833 213.277 222.95 213.432 222.74 213.095C227.798 209.555 232.905 201.816 235.358 196.227C235.296 194.326 237.914 186.685 238.432 183.633C241.307 166.707 239.18 154.459 233.099 138.842C232.375 137.049 231.046 134.592 230.14 132.808C229.538 132.163 227.79 129.108 227.235 128.181C204.619 90.3962 151.476 79.6542 117.13 108.078C114.412 110.328 111.935 112.883 109.165 115.048C106.352 119.109 103.151 123.709 100.746 128.014C94.243 139.851 90.7055 153.087 90.4357 166.59C90.3525 170.822 90.931 174.324 90.991 178.219C89.6345 179.735 89.3062 179.504 89.3062 179.504C89.3062 179.504 83.1545 163.268 82.188 159.626C74.393 129.049 78.9917 96.6307 94.9837 69.4279C105.871 50.7562 120.347 37.6289 139.896 28.4272C144.446 26.2854 150.283 23.9168 155.159 22.6353Z" fill="#2976D8"/>
<path d="M198.726 59.1972C203.523 60.9812 211.819 67.7279 215.619 71.2359C232.729 87.2119 245.473 111.683 247.35 135.083C247.694 136.687 247.831 139.984 247.89 141.678C248.396 156.287 245.923 170.875 241.027 184.636C239.95 187.664 238.243 191.926 236.529 194.604C236.172 195.168 235.78 195.71 235.358 196.227C235.296 194.326 237.914 186.685 238.432 183.633C241.307 166.707 239.18 154.459 233.099 138.842C232.375 137.049 231.046 134.592 230.14 132.808C229.538 132.163 227.79 129.108 227.235 128.181C204.619 90.3962 151.476 79.6542 117.13 108.078C114.412 110.328 111.935 112.883 109.165 115.048C110.4 111.489 112.937 107.985 115.149 104.952C131.385 82.6864 154.023 67.1454 181.102 61.3677C184.517 60.6457 187.974 60.1324 191.452 59.8314C193.648 59.6447 196.376 59.5714 198.471 59.2389L198.726 59.1972Z" fill="#2976D8"/>
<path d="M125.654 12.5966C130.039 11.4578 142.21 9.32541 146.905 9.17651C144.345 10.2578 141.877 10.762 139.278 11.676C135.718 12.928 132.215 14.5759 128.806 16.1898C127.533 17.0089 126.13 17.7558 124.801 18.4977C119.989 21.1842 115.532 24.1161 111.162 27.4784C87.3925 45.8809 70.7832 71.9949 64.1937 101.324C56.506 137.107 63.3625 174.479 83.252 205.203C93.6967 221.352 108.642 236.595 125.185 246.549C129.761 249.281 134.529 251.677 139.45 253.722C140.084 254.296 148.398 257.125 149.525 257.6L148.825 257.975C147.55 258.465 145.921 259.152 144.62 259.447C142.223 260.217 139.17 261.195 136.67 261.582C135.249 262.13 128.748 263.047 127.389 262.932C93.1745 266.075 59.8535 249.943 37.2415 224.843C34.9907 222.941 28.072 213.287 26.542 210.703C16.7901 195.523 11.9442 180.099 10.4638 162.173C9.04485 154.084 11.054 131.229 13.3816 123.815C14.846 116.942 19.3312 102.136 22.7922 95.9464C25.979 88.7189 29.8025 81.7892 34.2177 75.2394C51.7107 49.5469 76.629 29.8059 105.642 18.6549C112.085 16.1684 118.871 13.9324 125.654 12.5966Z" fill="#2976D8"/>
<path fill-rule="evenodd" clip-rule="evenodd" d="M23.6799 93.9999C20.2189 100.19 14.846 116.942 13.3816 123.815C11.054 131.229 9.04485 154.084 10.4638 162.173C11.9442 180.099 16.7901 195.523 26.542 210.703C28.072 213.287 34.9907 222.941 37.2415 224.843C59.8535 249.943 93.1745 266.075 127.389 262.932C128.748 263.047 135.249 262.13 136.67 261.582C139.17 261.195 142.223 260.217 144.62 259.447C145.684 259.206 146.968 258.702 148.098 258.259C148.349 258.16 148.593 258.064 148.825 257.975L149.5 257.6C135.971 252.575 126.576 248.17 118.5 242.154C112.375 237.848 106.853 233.133 100.73 227L96.9999 225.5L91.7861 223.155C89.6857 222.195 87.4036 221.152 84.7535 219.59C68.2782 210.005 54.0392 197.013 42.989 181.483C27.6595 159.559 17.8292 130.013 22.5421 103.182L22.9999 99.4999C23.0283 99.0486 23.4999 95.9999 23.4999 95.9999L23.6799 93.9999Z" fill="#2976D8"/>
<path d="M303 105L301.555 111.133C301.426 111.857 301.27 112.618 301.112 113.384C300.866 114.581 300.617 115.792 300.465 116.904C297.502 138.575 288.305 157.354 275.587 175.221C262.527 192.447 244.611 207.806 223.364 213.448C223.201 213.395 223.099 213.374 223.03 213.359C222.97 213.346 222.935 213.339 222.906 213.321C222.865 213.296 222.836 213.25 222.767 213.139L222.74 213.095C212.874 215.174 210.695 214.789 202.002 209.425C195.327 203.099 192.899 197.652 193.297 188.447C193.486 187.761 193.651 187.062 193.817 186.359C194.163 184.886 194.515 183.395 195.11 181.974C196.941 177.605 200.679 173.362 204.725 171.035C209.704 168.22 215.588 167.468 221.115 168.941C222.656 169.363 223.83 169.897 225.264 170.563C220.671 160.907 213.822 154.192 203.591 150.532C192.707 146.635 180.715 147.26 170.295 152.267C158.083 158.088 149.842 168.056 145.322 180.779C140.511 194.324 141.598 209.913 147.583 222.948C147.638 223.066 147.724 223.173 147.807 223.275L147.842 223.317C153.51 236.518 166.764 248.596 179.942 254.242C180.393 254.435 180.89 254.592 181.368 254.705C189.067 258.005 194.689 259.41 203.155 260.117C205.713 260.56 213.125 260.377 215.759 260.242C232.009 259.475 247.681 253.985 260.857 244.443C261.122 244.253 261.426 244.038 261.756 243.805C263.642 242.47 266.38 240.532 267.61 239.167C273.852 233.95 279.495 228.056 284.437 221.594C285.51 220.308 286.79 218.539 287.765 217.173C293.152 209.5 297.63 201.228 301.11 192.523C310.552 169.11 311.905 147.771 307.757 123.144L307.5 122L307 119L305.5 113.384L303 105Z" fill="#2976D8"/>
<path d="M147.842 223.317C147.749 223.202 147.645 223.083 147.583 222.948C141.598 209.913 140.511 194.324 145.322 180.779C149.842 168.056 158.083 158.088 170.295 152.267C180.715 147.26 192.707 146.635 203.591 150.532C213.822 154.192 220.671 160.907 225.264 170.563C223.83 169.897 222.656 169.363 221.115 168.941C215.588 167.468 209.704 168.22 204.725 171.035C200.679 173.362 196.941 177.605 195.11 181.974C194.23 184.072 193.884 186.324 193.297 188.447C192.175 189.917 189.845 190.105 188.067 190.526C181.974 191.97 176.143 196.401 172.774 201.684C169.806 205.429 168.33 210.438 167.122 214.989C165.223 225.45 167.484 236.24 173.424 245.059C173.652 245.392 174.011 245.85 174.299 246.127C175.536 247.523 181.02 253.602 181.368 254.705C180.89 254.592 180.393 254.435 179.942 254.242C166.764 248.596 153.51 236.518 147.842 223.317Z" fill="#2976D8"/>
<path d="M7.76331 208.741C9.19936 211.036 10.2515 213.351 11.4099 215.787C13.0389 218.193 14.4186 220.871 15.993 223.279C35.6865 253.397 68.1705 275.04 104.05 279.737C105.754 279.96 107.537 280.25 109.261 280.367C128.012 282.147 144.671 278.952 161.947 271.897C162.629 271.41 167.24 269.227 168.265 268.722L173.782 271.065L173.984 271.117C176.531 271.805 179.152 272.932 181.711 273.6C191.057 276.045 200.776 277.6 210.449 277.48C213.785 277.41 217.118 277.2 220.437 276.855C221.189 276.782 225.37 276.312 225.724 276.347C227.853 275.88 231.538 275.075 233.643 274.82C242.957 272.372 249.72 269.785 258.385 265.582L258.502 266.485C257.615 266.995 251.215 275.472 249.926 277.025C249.056 278.212 245.52 282.617 244.436 283.36C237.037 291.275 222.339 304.73 212.561 309.28L211.465 309.917C209.765 312.167 201.383 315.922 198.675 317.245C178.972 326.87 157.182 331.632 135.253 330.767C128.686 330.507 121.719 329.722 115.31 328.09C97.5547 322.895 80.0132 313.825 65.334 302.57C62.7795 300.612 58.9835 297.687 56.8855 295.425C52.5387 291.547 48.4107 287.43 44.5212 283.095C43.7312 282.497 41.0655 279.107 40.4037 278.205C37.1895 274.585 27.9957 261.91 26.36 257.937C24.1038 254.567 20.7302 247.717 19.1229 244.198C15.2429 235.133 11.4508 226.244 9.64276 216.492C8.97653 213.918 8.34998 211.334 7.76331 208.741Z" fill="#2976D8"/>
<path d="M258.385 265.582L258.502 266.485C257.871 266.848 254.45 271.242 252.064 274.308C251.096 275.552 250.298 276.577 249.926 277.025C249.056 278.212 245.52 282.617 244.436 283.36C237.037 291.275 222.339 304.73 212.561 309.28L211.465 309.917C210.393 309.509 205.922 310.262 203.308 310.702C202.69 310.806 202.176 310.893 201.834 310.942C198.278 311.43 194.703 311.762 191.119 311.942C168.816 313.012 146.116 306.5 127.109 294.99C126.936 294.885 126.748 294.772 126.548 294.651C123.955 293.085 119.25 290.244 117.452 288.62L114.746 286.617C114.557 286.329 114.032 285.907 113.596 285.556C113.407 285.404 113.235 285.266 113.114 285.157L109.261 280.367C128.012 282.147 144.671 278.952 161.947 271.897C162.489 271.51 165.508 270.054 167.242 269.218C167.691 269.001 168.054 268.826 168.265 268.722L173.782 271.065L173.984 271.117C175.222 271.452 176.478 271.89 177.735 272.328C179.065 272.792 180.396 273.257 181.711 273.6C191.057 276.045 200.776 277.6 210.449 277.48C213.785 277.41 217.118 277.2 220.437 276.855C220.622 276.837 221.017 276.795 221.511 276.742C223.019 276.581 225.457 276.321 225.724 276.347C227.853 275.88 231.538 275.075 233.643 274.82C242.957 272.372 249.72 269.785 258.385 265.582Z" fill="#2976D8"/>
<path d="M325.922 159.962C325.892 160.117 325.855 160.35 325.814 160.616C325.693 161.392 325.528 162.449 325.332 162.678C322.942 196.383 306.16 226.405 282.3 248.972C281.342 249.879 280.687 251.22 280.367 252.495L279.832 253.7C279.322 254.64 276.54 260.102 276.345 260.907C273.532 266.037 270.707 271.055 267.47 275.932L267.38 276.068C266.982 276.669 266.401 277.546 266.132 278.13C265.638 278.525 263.273 281.747 261.438 284.247C260.545 285.464 259.777 286.511 259.412 286.975C259.032 287.423 258.645 287.883 258.254 288.348C256.955 289.892 255.609 291.492 254.287 292.91C253.018 294.646 249.817 297.653 247.701 299.64C247.335 299.984 246.998 300.302 246.712 300.572C240.502 306.512 233.776 311.892 226.614 316.645C215.118 324.167 195.401 333.127 181.639 334.67L181.505 334.96C181.575 334.966 181.639 334.971 181.7 334.975C182.053 335.003 182.281 335.021 182.679 335.14C184.149 335.581 187.108 335.126 189.204 334.803C189.603 334.741 189.971 334.685 190.291 334.64C199.469 333.437 208.536 331.497 217.404 328.837C245.884 320.012 274.817 301.307 292.892 277.34C293.232 277.055 295.425 274.21 295.755 273.772C300.83 267.092 305.34 260 309.237 252.57C309.62 252.145 311.512 248.37 311.812 247.74C316.425 238.113 320.067 228.052 322.69 217.705C328.27 199.101 327.995 178.908 326.422 159.768L325.922 159.962Z" fill="#2976D8"/>
<path fill-rule="evenodd" clip-rule="evenodd" d="M125.5 37.9999C125.272 38.0237 124 37.9999 124 37.9999H123.366C111.842 46.1622 102.547 56.4573 94.9837 69.4279C78.9917 96.6307 74.393 129.049 82.188 159.626C83.1545 163.268 89.3062 179.504 89.3062 179.504C89.4727 179.894 89.6345 180.277 89.7944 180.656C90.6458 182.673 91.4424 184.56 92.5912 186.503C92.3942 185.283 92.1404 184.202 91.8881 183.128C91.5303 181.605 91.1756 180.095 90.991 178.219C90.991 178.219 90.8417 174.918 90.717 173.286C90.5539 171.152 90.3885 168.989 90.4357 166.59C90.7055 153.087 94.243 139.851 100.746 128.014C103.103 123.797 106.222 119.295 108.994 115.296L109.165 115.048C110.4 111.489 112.937 107.985 115.149 104.952C131.385 82.6864 154.023 67.1454 181.102 61.3677C184.517 60.6457 187.974 60.1324 191.452 59.8314C192.175 59.7699 192.957 59.7207 193.754 59.6705C195.377 59.5683 197.066 59.4619 198.471 59.2389L198.726 59.1972C198.348 59.0648 197.138 58.254 196.265 57.6683C195.947 57.4554 195.674 57.2722 195.501 57.1622C192.487 55.2452 189.488 53.7544 186.257 52.2294C175.579 47.2954 164.359 43.6307 152.827 41.3107L143.85 39.2187C143.488 39.2334 142.804 39.1261 142.119 39.0187C141.573 38.933 141.027 38.8473 140.642 38.8232C139.416 38.7464 138.186 38.6465 136.955 38.5464C136.019 38.4703 135.092 38.3756 134.17 38.2814L133.753 38.2447C131.047 38.0058 128.348 37.7676 125.5 37.9999Z" fill="#2976D8"/>
<path fill-rule="evenodd" clip-rule="evenodd" d="M326.414 159.674L326.422 159.768C327.995 178.908 328.27 199.101 322.69 217.705L280.367 252.495C280.687 251.22 281.342 249.879 282.3 248.972C306.16 226.405 322.942 196.383 325.332 162.678L325.577 152.749C325.577 152.749 326.201 157.202 326.414 159.674Z" fill="#2976D8"/>
<g style="mix-blend-mode:overlay" opacity="0.6">
<path d="M155.159 22.6353C158.077 21.5889 162.575 20.5528 165.628 19.914C189.151 15.2288 213.555 18.163 235.297 28.2905C266.735 43.122 290.915 71.1457 302.585 103.723C304.825 110.049 306.555 116.543 307.758 123.144C311.905 147.771 310.552 169.11 301.11 192.523C297.63 201.228 293.153 209.5 287.765 217.173C286.79 218.539 285.51 220.308 284.438 221.594L284.085 221.47C284.115 220.634 289.7 214.45 289.918 212.725C290.373 209.113 293.42 206.337 294.995 202.242C294.957 201.045 293.938 198.986 293.543 197.835C290.445 188.847 281.933 183.492 275.63 176.948C275.188 176.487 275.472 175.869 275.587 175.221C262.527 192.447 244.611 207.806 223.364 213.448C222.834 213.277 222.95 213.432 222.74 213.095C227.798 209.555 232.905 201.816 235.358 196.227C235.296 194.326 237.914 186.685 238.432 183.633C241.307 166.707 239.18 154.459 233.1 138.842C232.375 137.049 231.046 134.592 230.14 132.808C229.538 132.163 227.79 129.108 227.235 128.181C204.619 90.3962 151.476 79.6542 117.13 108.078C114.413 110.328 111.935 112.883 109.165 115.048C106.352 119.109 103.152 123.709 100.746 128.014C94.243 139.851 90.7055 153.087 90.4358 166.59C90.3525 170.822 90.931 174.324 90.991 178.219C89.6345 179.735 89.3063 179.504 89.3063 179.504C89.3063 179.504 83.1545 163.268 82.188 159.626C74.393 129.049 78.9918 96.6307 94.9838 69.428C105.871 50.7562 120.347 37.629 139.896 28.4272C144.446 26.2855 150.283 23.9169 155.159 22.6353Z" fill="url(#paint0_linear_1672_7)"/>
<path d="M198.726 59.1973C203.524 60.9813 211.819 67.728 215.62 71.236C232.729 87.212 245.474 111.683 247.351 135.084C247.694 136.687 247.831 139.984 247.89 141.679C248.396 156.287 245.923 170.876 241.027 184.637C239.95 187.664 238.243 191.926 236.53 194.604C236.172 195.168 235.781 195.71 235.358 196.227C235.296 194.326 237.914 186.685 238.432 183.634C241.307 166.707 239.18 154.459 233.1 138.842C232.375 137.049 231.046 134.592 230.14 132.808C229.538 132.163 227.79 129.108 227.235 128.181C204.619 90.3963 151.476 79.6543 117.13 108.079C114.413 110.328 111.935 112.883 109.165 115.049C110.4 111.489 112.937 107.985 115.149 104.952C131.385 82.6865 154.023 67.1455 181.102 61.3678C184.518 60.6458 187.974 60.1325 191.452 59.8315C193.649 59.6448 196.376 59.5715 198.471 59.239L198.726 59.1973Z" fill="url(#paint1_linear_1672_7)"/>
<path d="M125.654 12.5966C130.039 11.4578 142.21 9.32541 146.905 9.17651C144.345 10.2578 141.877 10.762 139.278 11.676C135.718 12.928 132.215 14.5759 128.806 16.1898C127.533 17.0089 126.13 17.7558 124.801 18.4977C119.989 21.1842 115.532 24.1161 111.162 27.4784C87.3925 45.8809 70.7832 71.9949 64.1937 101.324C56.506 137.107 63.3625 174.479 83.252 205.203C93.6967 221.352 108.642 236.595 125.185 246.549C129.761 249.281 134.529 251.677 139.45 253.722C140.084 254.296 148.398 257.125 149.525 257.6L148.825 257.975C147.55 258.465 145.921 259.152 144.62 259.447C142.223 260.217 139.17 261.195 136.67 261.582C135.249 262.13 128.748 263.047 127.389 262.932C93.1745 266.075 59.8535 249.943 37.2415 224.843C34.9907 222.941 28.072 213.287 26.542 210.703C16.7901 195.523 11.9442 180.099 10.4638 162.173C9.04486 154.084 11.054 131.229 13.3816 123.815C14.846 116.942 19.3312 102.136 22.7922 95.9464C25.979 88.7189 29.8025 81.7892 34.2177 75.2394C51.7107 49.5469 76.629 29.8059 105.642 18.6549C112.085 16.1684 118.871 13.9324 125.654 12.5966Z" fill="#B5B4B4"/>
<path fill-rule="evenodd" clip-rule="evenodd" d="M23.6799 94C20.2189 100.19 14.846 116.942 13.3816 123.815C11.054 131.23 9.04486 154.084 10.4638 162.173C11.9442 180.099 16.7901 195.524 26.542 210.704C28.072 213.288 34.9907 222.941 37.2415 224.843C59.8535 249.943 93.1745 266.075 127.389 262.933C128.748 263.048 135.249 262.13 136.67 261.583C139.17 261.195 142.223 260.218 144.62 259.448C145.684 259.206 146.968 258.702 148.098 258.259C148.349 258.16 148.593 258.064 148.825 257.975L149.5 257.6C135.971 252.575 126.576 248.17 118.5 242.154C112.375 237.848 106.853 233.133 100.73 227L96.9999 225.5L91.7861 223.156C89.6857 222.196 87.4036 221.153 84.7535 219.59C68.2782 210.005 54.0392 197.013 42.989 181.483C27.6595 159.559 17.8292 130.013 22.5421 103.182L22.9999 99.5C23.0284 99.0487 23.4999 96 23.4999 96L23.6799 94Z" fill="url(#paint2_linear_1672_7)"/>
<path d="M303 105L301.555 111.133C301.426 111.857 301.27 112.618 301.112 113.384C300.866 114.581 300.617 115.792 300.465 116.904C297.503 138.575 288.305 157.354 275.588 175.221C262.528 192.447 244.611 207.806 223.364 213.448C223.201 213.395 223.099 213.374 223.03 213.359C222.97 213.346 222.935 213.339 222.906 213.321C222.865 213.296 222.836 213.25 222.767 213.139L222.74 213.095C212.874 215.174 210.696 214.789 202.002 209.425C195.328 203.099 192.899 197.652 193.297 188.447C193.487 187.761 193.651 187.062 193.817 186.359C194.164 184.886 194.515 183.395 195.11 181.974C196.942 177.605 200.679 173.362 204.726 171.035C209.704 168.22 215.588 167.468 221.115 168.941C222.656 169.363 223.83 169.897 225.264 170.563C220.671 160.907 213.823 154.192 203.591 150.532C192.707 146.635 180.715 147.26 170.295 152.267C158.083 158.088 149.842 168.056 145.322 180.779C140.511 194.324 141.598 209.913 147.584 222.948C147.638 223.066 147.724 223.173 147.807 223.275L147.842 223.317C153.51 236.518 166.764 248.596 179.942 254.242C180.393 254.435 180.89 254.592 181.368 254.705C189.067 258.005 194.689 259.41 203.155 260.117C205.714 260.56 213.126 260.377 215.76 260.242C232.009 259.475 247.682 253.985 260.858 244.443C261.123 244.253 261.426 244.038 261.756 243.805C263.642 242.47 266.38 240.532 267.61 239.167C273.853 233.95 279.495 228.056 284.438 221.594C285.51 220.308 286.79 218.539 287.765 217.173C293.153 209.5 297.63 201.228 301.11 192.523C310.553 169.11 311.905 147.771 307.758 123.144L307.5 122L307 119L305.5 113.384L303 105Z" fill="url(#paint3_linear_1672_7)"/>
<path d="M147.842 223.317C147.749 223.202 147.646 223.083 147.584 222.948C141.598 209.913 140.511 194.324 145.322 180.779C149.842 168.056 158.083 158.088 170.295 152.267C180.715 147.26 192.707 146.635 203.591 150.532C213.823 154.192 220.671 160.907 225.264 170.563C223.83 169.897 222.656 169.363 221.115 168.941C215.588 167.468 209.704 168.22 204.726 171.035C200.679 173.362 196.942 177.605 195.11 181.974C194.231 184.072 193.884 186.324 193.297 188.447C192.175 189.917 189.845 190.105 188.068 190.526C181.975 191.97 176.143 196.401 172.774 201.684C169.806 205.429 168.33 210.438 167.123 214.989C165.223 225.45 167.484 236.24 173.424 245.059C173.653 245.392 174.011 245.85 174.3 246.127C175.537 247.523 181.02 253.602 181.368 254.705C180.89 254.592 180.393 254.435 179.942 254.242C166.764 248.596 153.51 236.518 147.842 223.317Z" fill="url(#paint4_linear_1672_7)"/>
<path d="M7.76331 208.741C9.19936 211.036 10.2515 213.351 11.4099 215.787C13.0389 218.193 14.4186 220.871 15.993 223.279C35.6865 253.398 68.1705 275.04 104.05 279.738C105.754 279.96 107.537 280.25 109.261 280.368C128.012 282.148 144.671 278.953 161.947 271.898C162.629 271.41 167.24 269.228 168.265 268.723L173.782 271.065L173.984 271.118C176.531 271.805 179.152 272.933 181.711 273.6C191.057 276.045 200.776 277.6 210.449 277.48C213.785 277.41 217.118 277.2 220.437 276.855C221.189 276.783 225.37 276.313 225.724 276.348C227.853 275.88 231.538 275.075 233.643 274.82C242.957 272.373 249.72 269.785 258.385 265.583L258.502 266.485C257.615 266.995 251.215 275.473 249.926 277.025C249.056 278.213 245.52 282.618 244.436 283.36C237.037 291.275 222.339 304.73 212.561 309.28L211.465 309.918C209.765 312.168 201.383 315.923 198.675 317.245C178.972 326.87 157.182 331.633 135.253 330.768C128.686 330.508 121.719 329.723 115.31 328.09C97.5547 322.895 80.0132 313.825 65.334 302.57C62.7795 300.613 58.9835 297.688 56.8855 295.425C52.5387 291.548 48.4107 287.43 44.5212 283.095C43.7312 282.498 41.0655 279.108 40.4037 278.205C37.1895 274.585 27.9957 261.91 26.36 257.938C24.1038 254.568 20.7302 247.717 19.1229 244.198C15.2429 235.134 11.4508 226.244 9.64276 216.492C8.97653 213.918 8.34998 211.334 7.76331 208.741Z" fill="url(#paint5_linear_1672_7)"/>
<path d="M258.385 265.583L258.502 266.485C257.871 266.848 254.45 271.242 252.064 274.308C251.096 275.552 250.298 276.577 249.926 277.025C249.056 278.213 245.52 282.618 244.436 283.36C237.037 291.275 222.339 304.73 212.561 309.28L211.465 309.918C210.393 309.509 205.922 310.262 203.308 310.702C202.69 310.806 202.176 310.893 201.834 310.943C198.278 311.43 194.703 311.763 191.119 311.943C168.816 313.013 146.116 306.5 127.109 294.99C126.936 294.885 126.748 294.772 126.548 294.651C123.955 293.086 119.25 290.244 117.452 288.62L114.746 286.618C114.557 286.329 114.032 285.907 113.596 285.556C113.407 285.404 113.235 285.266 113.114 285.158L109.261 280.368C128.012 282.148 144.671 278.953 161.947 271.898C162.489 271.51 165.508 270.054 167.242 269.218C167.691 269.001 168.054 268.826 168.265 268.723L173.782 271.065L173.984 271.118C175.222 271.452 176.478 271.89 177.735 272.328C179.065 272.792 180.396 273.257 181.711 273.6C191.057 276.045 200.776 277.6 210.449 277.48C213.785 277.41 217.118 277.2 220.437 276.855C220.622 276.837 221.017 276.795 221.511 276.742C223.019 276.581 225.457 276.321 225.724 276.348C227.853 275.88 231.538 275.075 233.643 274.82C242.957 272.373 249.72 269.785 258.385 265.583Z" fill="url(#paint6_linear_1672_7)"/>
<path d="M325.922 159.962C325.892 160.117 325.855 160.35 325.814 160.616C325.693 161.392 325.528 162.449 325.332 162.678C322.942 196.383 306.16 226.405 282.3 248.973C281.342 249.879 280.687 251.22 280.367 252.495L279.832 253.7C279.322 254.64 276.54 260.103 276.345 260.908C273.533 266.038 270.708 271.055 267.47 275.933L267.38 276.068C266.982 276.669 266.401 277.546 266.133 278.13C265.638 278.525 263.273 281.748 261.438 284.247C260.545 285.464 259.777 286.511 259.413 286.975C259.032 287.423 258.645 287.883 258.254 288.348C256.955 289.892 255.609 291.492 254.288 292.91C253.018 294.646 249.817 297.653 247.701 299.641C247.335 299.985 246.998 300.302 246.712 300.573C240.502 306.513 233.776 311.893 226.614 316.645C215.118 324.168 195.401 333.128 181.639 334.67L181.505 334.96C181.575 334.966 181.639 334.971 181.7 334.976C182.053 335.003 182.281 335.021 182.679 335.14C184.149 335.581 187.108 335.126 189.204 334.803C189.603 334.741 189.971 334.685 190.291 334.64C199.47 333.438 208.536 331.498 217.404 328.838C245.884 320.013 274.817 301.308 292.892 277.34C293.232 277.055 295.425 274.21 295.755 273.773C300.83 267.093 305.34 260 309.237 252.57C309.62 252.145 311.512 248.37 311.812 247.74C316.425 238.113 320.068 228.052 322.69 217.705C328.27 199.101 327.995 178.909 326.422 159.769L325.922 159.962Z" fill="url(#paint7_linear_1672_7)"/>
<path fill-rule="evenodd" clip-rule="evenodd" d="M125.5 38C125.272 38.0237 124 38 124 38H123.366C111.842 46.1622 102.547 56.4573 94.9838 69.428C78.9918 96.6308 74.393 129.049 82.188 159.627C83.1545 163.268 89.3063 179.505 89.3063 179.505C89.4727 179.894 89.6346 180.277 89.7944 180.656C90.6458 182.673 91.4424 184.56 92.5913 186.503C92.3942 185.283 92.1404 184.202 91.8882 183.128C91.5303 181.605 91.1756 180.095 90.991 178.22C90.991 178.22 90.8417 174.918 90.717 173.286C90.5539 171.152 90.3886 168.989 90.4358 166.59C90.7055 153.087 94.243 139.851 100.746 128.014C103.103 123.797 106.222 119.295 108.994 115.296L109.165 115.049C110.4 111.489 112.937 107.985 115.149 104.952C131.385 82.6865 154.023 67.1455 181.102 61.3678C184.518 60.6458 187.974 60.1325 191.452 59.8315C192.175 59.77 192.957 59.7208 193.754 59.6706C195.377 59.5684 197.066 59.462 198.471 59.239L198.726 59.1973C198.348 59.0649 197.138 58.2541 196.265 57.6684C195.947 57.4554 195.674 57.2723 195.501 57.1623C192.487 55.2453 189.489 53.7545 186.257 52.2295C175.579 47.2955 164.359 43.6308 152.827 41.3108L143.85 39.2188C143.488 39.2335 142.804 39.1262 142.119 39.0188C141.573 38.9331 141.027 38.8473 140.643 38.8233C139.416 38.7465 138.186 38.6466 136.955 38.5465C136.019 38.4704 135.092 38.3757 134.17 38.2815L133.753 38.2447C131.047 38.0059 128.348 37.7677 125.5 38Z" fill="url(#paint8_linear_1672_7)"/>
<path fill-rule="evenodd" clip-rule="evenodd" d="M326.414 159.674L326.422 159.769C327.995 178.909 328.27 199.101 322.69 217.705L280.367 252.495C280.687 251.22 281.342 249.879 282.3 248.973C306.16 226.405 322.942 196.383 325.332 162.678L325.578 152.749C325.578 152.749 326.201 157.202 326.414 159.674Z" fill="url(#paint9_linear_1672_7)"/>
</g>
</g>
<defs>
<linearGradient id="paint0_linear_1672_7" x1="145.676" y1="128.203" x2="299.858" y2="91.6822" gradientUnits="userSpaceOnUse">
<stop stop-color="#A7A6A6"/>
<stop offset="1" stop-color="#D2D2D2"/>
</linearGradient>
<linearGradient id="paint1_linear_1672_7" x1="218.057" y1="69.7683" x2="170.409" y2="158.739" gradientUnits="userSpaceOnUse">
<stop stop-color="#474747"/>
<stop offset="1" stop-color="#606060"/>
</linearGradient>
<linearGradient id="paint2_linear_1672_7" x1="81.2532" y1="264.525" x2="73.3185" y2="95.3895" gradientUnits="userSpaceOnUse">
<stop stop-color="#686767"/>
<stop offset="1" stop-color="#908E8F"/>
</linearGradient>
<linearGradient id="paint3_linear_1672_7" x1="270.54" y1="174.88" x2="321.676" y2="146.967" gradientUnits="userSpaceOnUse">
<stop stop-color="#949494"/>
<stop offset="1" stop-color="#DAD9D9"/>
</linearGradient>
<linearGradient id="paint4_linear_1672_7" x1="195.578" y1="233.449" x2="173.614" y2="150.901" gradientUnits="userSpaceOnUse">
<stop stop-color="#676666"/>
<stop offset="1" stop-color="#BCBBBB"/>
</linearGradient>
<linearGradient id="paint5_linear_1672_7" x1="124.489" y1="333.125" x2="113.976" y2="245.361" gradientUnits="userSpaceOnUse">
<stop stop-color="#303030"/>
<stop offset="1" stop-color="#666566"/>
</linearGradient>
<linearGradient id="paint6_linear_1672_7" x1="186.689" y1="257.425" x2="177.286" y2="311.548" gradientUnits="userSpaceOnUse">
<stop stop-color="#585858"/>
<stop offset="1" stop-color="#7D7D7D"/>
</linearGradient>
<linearGradient id="paint7_linear_1672_7" x1="241.738" y1="333.447" x2="240.435" y2="266.317" gradientUnits="userSpaceOnUse">
<stop stop-color="#1F1F20"/>
<stop offset="1" stop-color="#656564"/>
</linearGradient>
<linearGradient id="paint8_linear_1672_7" x1="148.247" y1="123.89" x2="93.0903" y2="65.8438" gradientUnits="userSpaceOnUse">
<stop stop-color="#868586"/>
<stop offset="1" stop-color="#B9B8B8"/>
</linearGradient>
<linearGradient id="paint9_linear_1672_7" x1="319.182" y1="220.283" x2="292.49" y2="195.333" gradientUnits="userSpaceOnUse">
<stop stop-color="#A09F9F"/>
<stop offset="1" stop-color="#EBEBEB"/>
</linearGradient>
<clipPath id="clip0_1672_7">
<rect width="337" height="348" fill="white"/>
</clipPath>
</defs>
</svg>
